<svg xmlns="http://www.w3.org/2000/svg" xmlns:xlink="http://www.w3.org/1999/xlink" width="907" zoomAndPan="magnify" viewBox="0 0 680.25 959.999967" height="1280" preserveAspectRatio="xMidYMid meet" version="1.0"><defs><clipPath id="6ef3ff0cf7"><path d="M 101.96875 366.355469 L 210.921875 366.355469 L 210.921875 475.304688 L 101.96875 475.304688 Z M 101.96875 366.355469 " clip-rule="nonzero"/></clipPath><clipPath id="3adba125ba"><path d="M 156.445312 366.355469 C 126.359375 366.355469 101.96875 390.742188 101.96875 420.828125 C 101.96875 450.914062 126.359375 475.304688 156.445312 475.304688 C 186.53125 475.304688 210.921875 450.914062 210.921875 420.828125 C 210.921875 390.742188 186.53125 366.355469 156.445312 366.355469 Z M 156.445312 366.355469 " clip-rule="nonzero"/></clipPath><clipPath id="f51e887d1f"><path d="M 221.015625 366.355469 L 329.964844 366.355469 L 329.964844 475.304688 L 221.015625 475.304688 Z M 221.015625 366.355469 " clip-rule="nonzero"/></clipPath><clipPath id="80a9ca5d1e"><path d="M 275.488281 366.355469 C 245.402344 366.355469 221.015625 390.742188 221.015625 420.828125 C 221.015625 450.914062 245.402344 475.304688 275.488281 475.304688 C 305.574219 475.304688 329.964844 450.914062 329.964844 420.828125 C 329.964844 390.742188 305.574219 366.355469 275.488281 366.355469 Z M 275.488281 366.355469 " clip-rule="nonzero"/></clipPath><clipPath id="1665b0d435"><path d="M 340.058594 366.355469 L 449.007812 366.355469 L 449.007812 475.304688 L 340.058594 475.304688 Z M 340.058594 366.355469 " clip-rule="nonzero"/></clipPath><clipPath id="967989377f"><path d="M 394.535156 366.355469 C 364.449219 366.355469 340.058594 390.742188 340.058594 420.828125 C 340.058594 450.914062 364.449219 475.304688 394.535156 475.304688 C 424.621094 475.304688 449.007812 450.914062 449.007812 420.828125 C 449.007812 390.742188 424.621094 366.355469 394.535156 366.355469 Z M 394.535156 366.355469 " clip-rule="nonzero"/></clipPath><clipPath id="8d8281a5f3"><path d="M 460.113281 366.355469 L 569.0625 366.355469 L 569.0625 475.304688 L 460.113281 475.304688 Z M 460.113281 366.355469 " clip-rule="nonzero"/></clipPath><clipPath id="c07b28a26f"><path d="M 514.589844 366.355469 C 484.503906 366.355469 460.113281 390.742188 460.113281 420.828125 C 460.113281 450.914062 484.503906 475.304688 514.589844 475.304688 C 544.675781 475.304688 569.0625 450.914062 569.0625 420.828125 C 569.0625 390.742188 544.675781 366.355469 514.589844 366.355469 Z M 514.589844 366.355469 " clip-rule="nonzero"/></clipPath><clipPath id="9555320dd7"><path d="M 102.589844 484.695312 L 211.539062 484.695312 L 211.539062 593.644531 L 102.589844 593.644531 Z M 102.589844 484.695312 " clip-rule="nonzero"/></clipPath><clipPath id="2691bae4b4"><path d="M 157.0625 484.695312 C 126.976562 484.695312 102.589844 509.085938 102.589844 539.171875 C 102.589844 569.257812 126.976562 593.644531 157.0625 593.644531 C 187.148438 593.644531 211.539062 569.257812 211.539062 539.171875 C 211.539062 509.085938 187.148438 484.695312 157.0625 484.695312 Z M 157.0625 484.695312 " clip-rule="nonzero"/></clipPath><clipPath id="28c600865b"><path d="M 221.632812 484.695312 L 330.582031 484.695312 L 330.582031 593.644531 L 221.632812 593.644531 Z M 221.632812 484.695312 " clip-rule="nonzero"/></clipPath><clipPath id="95855ea250"><path d="M 276.105469 484.695312 C 246.019531 484.695312 221.632812 509.085938 221.632812 539.171875 C 221.632812 569.257812 246.019531 593.644531 276.105469 593.644531 C 306.191406 593.644531 330.582031 569.257812 330.582031 539.171875 C 330.582031 509.085938 306.191406 484.695312 276.105469 484.695312 Z M 276.105469 484.695312 " clip-rule="nonzero"/></clipPath><clipPath id="b774e22f9b"><path d="M 340.675781 484.695312 L 449.625 484.695312 L 449.625 593.644531 L 340.675781 593.644531 Z M 340.675781 484.695312 " clip-rule="nonzero"/></clipPath><clipPath id="9ff5579171"><path d="M 395.152344 484.695312 C 365.066406 484.695312 340.675781 509.085938 340.675781 539.171875 C 340.675781 569.257812 365.066406 593.644531 395.152344 593.644531 C 425.238281 593.644531 449.625 569.257812 449.625 539.171875 C 449.625 509.085938 425.238281 484.695312 395.152344 484.695312 Z M 395.152344 484.695312 " clip-rule="nonzero"/></clipPath><clipPath id="94f2ec9d3d"><path d="M 460.730469 484.695312 L 569.679688 484.695312 L 569.679688 593.644531 L 460.730469 593.644531 Z M 460.730469 484.695312 " clip-rule="nonzero"/></clipPath><clipPath id="2a788384c2"><path d="M 515.207031 484.695312 C 485.121094 484.695312 460.730469 509.085938 460.730469 539.171875 C 460.730469 569.257812 485.121094 593.644531 515.207031 593.644531 C 545.292969 593.644531 569.679688 569.257812 569.679688 539.171875 C 569.679688 509.085938 545.292969 484.695312 515.207031 484.695312 Z M 515.207031 484.695312 " clip-rule="nonzero"/></clipPath></defs><g clip-path="url(#6ef3ff0cf7)"><g clip-path="url(#3adba125ba)"><path fill="#d0416f" d="M 101.96875 366.355469 L 210.921875 366.355469 L 210.921875 475.304688 L 101.96875 475.304688 Z M 101.96875 366.355469 " fill-opacity="1" fill-rule="nonzero"/></g></g><g clip-path="url(#f51e887d1f)"><g clip-path="url(#80a9ca5d1e)"><path fill="#d07b93" d="M 221.015625 366.355469 L 329.964844 366.355469 L 329.964844 475.304688 L 221.015625 475.304688 Z M 221.015625 366.355469 " fill-opacity="1" fill-rule="nonzero"/></g></g><g clip-path="url(#1665b0d435)"><g clip-path="url(#967989377f)"><path fill="#cd70bf" d="M 340.058594 366.355469 L 449.007812 366.355469 L 449.007812 475.304688 L 340.058594 475.304688 Z M 340.058594 366.355469 " fill-opacity="1" fill-rule="nonzero"/></g></g><g clip-path="url(#8d8281a5f3)"><g clip-path="url(#c07b28a26f)"><path fill="#fcc9c8" d="M 460.113281 366.355469 L 569.0625 366.355469 L 569.0625 475.304688 L 460.113281 475.304688 Z M 460.113281 366.355469 " fill-opacity="1" fill-rule="nonzero"/></g></g><g clip-path="url(#9555320dd7)"><g clip-path="url(#2691bae4b4)"><path fill="#f5bc60" d="M 102.589844 484.695312 L 211.539062 484.695312 L 211.539062 593.644531 L 102.589844 593.644531 Z M 102.589844 484.695312 " fill-opacity="1" fill-rule="nonzero"/></g></g><g clip-path="url(#28c600865b)"><g clip-path="url(#95855ea250)"><path fill="#fe6d48" d="M 221.632812 484.695312 L 330.582031 484.695312 L 330.582031 593.644531 L 221.632812 593.644531 Z M 221.632812 484.695312 " fill-opacity="1" fill-rule="nonzero"/></g></g><g clip-path="url(#b774e22f9b)"><g clip-path="url(#9ff5579171)"><path fill="#9cbad6" d="M 340.675781 484.695312 L 449.625 484.695312 L 449.625 593.644531 L 340.675781 593.644531 Z M 340.675781 484.695312 " fill-opacity="1" fill-rule="nonzero"/></g></g><g clip-path="url(#94f2ec9d3d)"><g clip-path="url(#2a788384c2)"><path fill="#58843d" d="M 460.730469 484.695312 L 569.679688 484.695312 L 569.679688 593.644531 L 460.730469 593.644531 Z M 460.730469 484.695312 " fill-opacity="1" fill-rule="nonzero"/></g></g></svg>